<?xml version="1.0" encoding="UTF-8"?>
<svg width="24px" height="23px" viewBox="0 0 24 23" version="1.1" xmlns="http://www.w3.org/2000/svg"
     xmlns:xlink="http://www.w3.org/1999/xlink">
    <!-- Generator: Sketch 48.1 (47250) - http://www.bohemiancoding.com/sketch -->
    <title>下载</title>
    <desc>Created with Sketch.</desc>
    <defs></defs>
    <g id="弹框-" stroke="none" stroke-width="1" fill="none" fill-rule="evenodd"
       transform="translate(-890.000000, -287.000000)">
        <g id="批量导入学员-copy-2" transform="translate(807.000000, 145.000000)" fill="#36B459">
            <g id="btn" transform="translate(59.000000, 133.806283)">
                <path
                    d="M36,31.0432164 L35.9946696,31.0486508 L31.8467143,26.8197432 L33.0589018,25.5838904 L35.1428571,27.7085031 L35.1428571,20.2345637 C35.1428571,19.7517196 35.5266161,19.3605505 36,19.3605505 C36.4734911,19.3605505 36.8571429,19.7518834 36.8571429,20.234591 L36.8571429,27.7085031 L38.9410982,25.5838631 L40.1532857,26.8197159 L36.0053304,31.0486508 L36,31.0432164 Z M36.2142857,9 C39.7820625,9 42.7547679,11.5956321 43.4464286,15.0352107 C45.9613125,15.0352107 48,17.113699 48,19.6776804 C48,22.1035893 46.1748482,24.0945535 43.8482143,24.2382242 L42.5148962,24.2382242 C41.4815747,24.2382242 40.6607143,23.4557284 40.6607143,22.4904709 L40.6607143,24.2382242 C40.6607143,23.3233979 41.4883022,22.4904709 42.5091836,22.4904709 L43.5535714,22.4904709 C45.072,22.4309927 46.2857143,21.2398169 46.2857143,19.6776804 C46.2857143,18.1133866 45.0685982,16.8391106 43.5471964,16.7849848 C43.5463393,16.8070502 42.7483975,16.8107029 42.7483975,16.8107029 C42.2451947,16.8174399 41.8011198,16.408271 41.7660009,15.8982621 C41.7660009,15.8982621 41.7281518,15.3773061 41.7340179,15.3748756 C41.2277946,12.7377616 38.9491607,10.7477533 36.2142857,10.7477533 C34.5310446,10.7477533 33.020625,11.5016631 31.9955089,12.7140031 C31.9955089,12.7140031 31.7276518,12.9734352 31.4865804,13.3830649 C31.3213125,13.6638797 31.4787533,13.3964237 31.4787533,13.3964237 C31.2294044,13.8553065 30.6353845,14.1770042 30.1305388,14.1288932 C30.1305388,14.1288932 29.7455357,14.0657538 29.2547143,14.1015008 C27.2498571,14.4147036 25.7142857,16.1806445 25.7142857,18.3122481 C25.7142857,20.6650518 27.5851071,22.4904709 29.90625,22.4915086 C30.3609643,22.5129186 30.8571429,22.8954581 30.8571429,23.3643476 C30.8571429,23.8469733 30.3930268,24.2382242 29.8928571,24.2382242 C26.6383393,24.2382242 24,21.6303305 24,18.3122481 C24,14.9941658 26.6383393,12.3043461 29.8928571,12.3043461 C29.9695446,12.3043461 30.0457768,12.3062304 30.1217679,12.3092071 C31.4398125,10.3131089 33.6766071,9 36.2142857,9 Z"
                    id="下载"></path>
            </g>
        </g>
    </g>
</svg>
